<svg width="13" height="13" viewBox="0 0 13 13" fill="none" xmlns="http://www.w3.org/2000/svg">
<path fill-rule="evenodd" clip-rule="evenodd" d="M0.728763 0.693577C0.658919 0.763245 0.603504 0.846009 0.565694 0.937126C0.527885 1.02824 0.508423 1.12593 0.508423 1.22458C0.508423 1.32323 0.527885 1.42091 0.565694 1.51203C0.603504 1.60315 0.658919 1.68591 0.728763 1.75558L11.2288 12.2556C11.3696 12.3964 11.5606 12.4755 11.7598 12.4755C11.9589 12.4755 12.1499 12.3964 12.2908 12.2556C12.4316 12.1147 12.5107 11.9237 12.5107 11.7246C12.5107 11.5254 12.4316 11.3344 12.2908 11.1936L1.79076 0.693577C1.7211 0.623732 1.63833 0.568317 1.54721 0.530508C1.4561 0.492698 1.35841 0.473236 1.25976 0.473236C1.16111 0.473236 1.06343 0.492698 0.972313 0.530508C0.881195 0.568317 0.798432 0.623732 0.728763 0.693577Z" fill="#41454D"/>
</svg>
