<svg width="13" height="13" viewBox="0 0 13 13" fill="none" xmlns="http://www.w3.org/2000/svg">
<path fill-rule="evenodd" clip-rule="evenodd" d="M12.2908 0.693577C12.3606 0.763245 12.416 0.846009 12.4538 0.937126C12.4916 1.02824 12.5111 1.12593 12.5111 1.22458C12.5111 1.32323 12.4916 1.42091 12.4538 1.51203C12.416 1.60315 12.3606 1.68591 12.2908 1.75558L1.79077 12.2556C1.64994 12.3964 1.45893 12.4755 1.25977 12.4755C1.0606 12.4755 0.869597 12.3964 0.728767 12.2556C0.587937 12.1147 0.50882 11.9237 0.50882 11.7246C0.50882 11.5254 0.587937 11.3344 0.728767 11.1936L11.2288 0.693577C11.2984 0.623732 11.3812 0.568317 11.4723 0.530508C11.5634 0.492698 11.6611 0.473236 11.7598 0.473236C11.8584 0.473236 11.9561 0.492698 12.0472 0.530508C12.1383 0.568317 12.2211 0.623732 12.2908 0.693577Z" fill="#41454D"/>
</svg>
