<svg width="21" height="12" viewBox="0 0 21 12" fill="none" xmlns="http://www.w3.org/2000/svg">
<path fill-rule="evenodd" clip-rule="evenodd" d="M0.978764 0.969057C1.04843 0.899212 1.1312 0.843797 1.22231 0.805988C1.31343 0.768178 1.41111 0.748716 1.50976 0.748716C1.60841 0.748716 1.7061 0.768178 1.79721 0.805988C1.88833 0.843797 1.9711 0.899212 2.04076 0.969057L10.5098 9.43956L18.9788 0.969057C19.0485 0.899325 19.1313 0.84401 19.2224 0.806272C19.3135 0.768533 19.4111 0.749109 19.5098 0.749109C19.6084 0.749109 19.706 0.768533 19.7971 0.806272C19.8882 0.84401 19.971 0.899325 20.0408 0.969057C20.1105 1.03879 20.1658 1.12157 20.2035 1.21268C20.2413 1.30379 20.2607 1.40144 20.2607 1.50006C20.2607 1.59867 20.2413 1.69632 20.2035 1.78743C20.1658 1.87854 20.1105 1.96133 20.0408 2.03106L11.0408 11.0311C10.9711 11.1009 10.8883 11.1563 10.7972 11.1941C10.7061 11.2319 10.6084 11.2514 10.5098 11.2514C10.4111 11.2514 10.3134 11.2319 10.2223 11.1941C10.1312 11.1563 10.0484 11.1009 9.97876 11.0311L0.978764 2.03106C0.908919 1.96139 0.853504 1.87863 0.815695 1.78751C0.777885 1.69639 0.758423 1.59871 0.758423 1.50006C0.758423 1.40141 0.777885 1.30372 0.815695 1.21261C0.853504 1.12149 0.908919 1.03873 0.978764 0.969057Z" fill="black"/>
</svg>
